<mxfile host="app.diagrams.net" modified="2023-07-25T17:41:08.624Z" agent="Mozilla/5.0 (Windows NT 10.0; Win64; x64) AppleWebKit/537.36 (KHTML, like Gecko) Chrome/113.0.0.0 Safari/537.36 OPR/99.0.0.0 (Edition Yx GX)" etag="s8zsFUFysSI6AE-hjdu1" version="21.6.5" type="google">
  <diagram id="R2lEEEUBdFMjLlhIrx00" name="Page-1">
    <mxGraphModel grid="1" page="1" gridSize="10" guides="1" tooltips="1" connect="1" arrows="1" fold="1" pageScale="1" pageWidth="850" pageHeight="1100" background="#000000" math="0" shadow="0" extFonts="Permanent Marker^https://fonts.googleapis.com/css?family=Permanent+Marker">
      <root>
        <mxCell id="0" />
        <mxCell id="1" parent="0" />
        <mxCell id="vH6ULO_KkOqNthIUcQd1-61" value="&lt;b&gt;Документация к боту.&lt;/b&gt;&lt;br&gt;&lt;br&gt;&lt;div style=&quot;text-align: left;&quot;&gt;&lt;b&gt;&lt;i&gt;main.py&lt;/i&gt;&lt;/b&gt;&lt;/div&gt;Когда от пользователя исходит запрос, он направляется в файл main.py. Он в свою очередь обрабатывает её и определяет нужно обратиться к базе данных&lt;br&gt;через models.py или нужно запустить одну из функций.&lt;br&gt;Он же отправляет ответ пользователю.&lt;br&gt;В этом файле будет располагаться основная логика.&lt;br&gt;&lt;br&gt;&lt;div style=&quot;text-align: left;&quot;&gt;&lt;b&gt;&lt;i&gt;models.py&lt;/i&gt;&lt;/b&gt;&lt;/div&gt;&lt;div style=&quot;&quot;&gt;Файл предоставляет структуру данных и предоставляет механизмы для управления данными (добавление, изменение, удаление) и выполнение запросов к БД.&lt;/div&gt;&lt;div style=&quot;&quot;&gt;&lt;br&gt;&lt;/div&gt;&lt;div style=&quot;text-align: left;&quot;&gt;&lt;b&gt;&lt;i&gt;Functions&lt;/i&gt;&lt;/b&gt;&lt;br&gt;&lt;/div&gt;&lt;div style=&quot;&quot;&gt;Под&amp;nbsp;&lt;/div&gt;&lt;span style=&quot;border-color: var(--border-color); text-align: left;&quot;&gt;&lt;span style=&quot;border-color: var(--border-color);&quot;&gt;Functions, я подразумеваю директорию в которой есть функции) или думаю можно назвать это контентом&lt;/span&gt;&lt;/span&gt;&lt;div style=&quot;text-align: left;&quot;&gt;&lt;b&gt;&lt;i&gt;&lt;br&gt;&lt;/i&gt;&lt;/b&gt;&lt;/div&gt;" style="text;strokeColor=none;align=center;fillColor=none;html=1;verticalAlign=middle;whiteSpace=wrap;rounded=0;fontColor=#FFFFFF;" vertex="1" parent="1">
          <mxGeometry x="610" y="90" width="180" height="550" as="geometry" />
        </mxCell>
        <mxCell id="vH6ULO_KkOqNthIUcQd1-62" value="" style="group" connectable="0" vertex="1" parent="1">
          <mxGeometry x="60" y="110" width="500" height="530" as="geometry" />
        </mxCell>
        <mxCell id="vH6ULO_KkOqNthIUcQd1-6" value="&amp;nbsp;" style="rounded=0;whiteSpace=wrap;html=1;fillColor=none;strokeWidth=5;strokeColor=#E1D5E7;labelBackgroundColor=none;gradientColor=#7ea6e0;container=0;" vertex="1" parent="vH6ULO_KkOqNthIUcQd1-62">
          <mxGeometry y="100" width="500" height="430" as="geometry" />
        </mxCell>
        <mxCell id="vH6ULO_KkOqNthIUcQd1-1" value="" style="rounded=0;whiteSpace=wrap;html=1;fillColor=none;strokeWidth=5;strokeColor=#E1D5E7;labelBackgroundColor=none;gradientColor=#7ea6e0;" vertex="1" parent="vH6ULO_KkOqNthIUcQd1-62">
          <mxGeometry width="500" height="80" as="geometry" />
        </mxCell>
        <mxCell id="vH6ULO_KkOqNthIUcQd1-3" value="Запрос" style="rounded=0;whiteSpace=wrap;html=1;fillColor=#60a917;strokeColor=#2D7600;labelBackgroundColor=none;fontColor=#ffffff;" vertex="1" parent="vH6ULO_KkOqNthIUcQd1-62">
          <mxGeometry x="115" y="10" width="120" height="60" as="geometry" />
        </mxCell>
        <mxCell id="vH6ULO_KkOqNthIUcQd1-4" value="Ответ" style="rounded=0;whiteSpace=wrap;html=1;fillColor=#60a917;strokeColor=#2D7600;labelBackgroundColor=none;fontColor=#ffffff;" vertex="1" parent="vH6ULO_KkOqNthIUcQd1-62">
          <mxGeometry x="300" y="10" width="120" height="60" as="geometry" />
        </mxCell>
        <mxCell id="vH6ULO_KkOqNthIUcQd1-5" value="&lt;b&gt;&lt;i&gt;&lt;font color=&quot;#cccccc&quot;&gt;Пользователи&lt;/font&gt;&lt;/i&gt;&lt;/b&gt;" style="text;strokeColor=none;align=center;fillColor=none;html=1;verticalAlign=middle;whiteSpace=wrap;rounded=0;labelBackgroundColor=none;fontColor=#FFFFFF;" vertex="1" parent="vH6ULO_KkOqNthIUcQd1-62">
          <mxGeometry x="20" y="20" width="60" height="30" as="geometry" />
        </mxCell>
        <mxCell id="vH6ULO_KkOqNthIUcQd1-7" value="&lt;b style=&quot;border-color: var(--border-color); font-family: Helvetica; font-style: normal; font-variant-ligatures: normal; font-variant-caps: normal; letter-spacing: normal; orphans: 2; text-indent: 0px; text-transform: none; widows: 2; word-spacing: 0px; -webkit-text-stroke-width: 0px; text-decoration-thickness: initial; text-decoration-style: initial; text-decoration-color: initial;&quot;&gt;&lt;i style=&quot;border-color: var(--border-color);&quot;&gt;&lt;font style=&quot;font-size: 21px;&quot;&gt;Бот&lt;/font&gt;&lt;/i&gt;&lt;/b&gt;" style="text;whiteSpace=wrap;html=1;shadow=0;align=center;fontColor=#FFFFFF;rounded=0;labelBackgroundColor=none;" vertex="1" parent="vH6ULO_KkOqNthIUcQd1-62">
          <mxGeometry x="20" y="120" width="30" height="30" as="geometry" />
        </mxCell>
        <mxCell id="vH6ULO_KkOqNthIUcQd1-8" value="main.py" style="rounded=0;whiteSpace=wrap;html=1;fillColor=#60a917;strokeColor=#2D7600;labelBackgroundColor=none;fontColor=#ffffff;" vertex="1" parent="vH6ULO_KkOqNthIUcQd1-62">
          <mxGeometry x="115" y="230" width="120" height="60" as="geometry" />
        </mxCell>
        <mxCell id="vH6ULO_KkOqNthIUcQd1-9" value="&lt;b style=&quot;border-color: var(--border-color); text-align: left;&quot;&gt;&lt;i style=&quot;border-color: var(--border-color);&quot;&gt;Functions&lt;/i&gt;&lt;/b&gt;" style="rounded=0;whiteSpace=wrap;html=1;fillColor=#60a917;strokeColor=#2D7600;labelBackgroundColor=none;fontColor=#ffffff;" vertex="1" parent="vH6ULO_KkOqNthIUcQd1-62">
          <mxGeometry x="360" y="355" width="120" height="60" as="geometry" />
        </mxCell>
        <mxCell id="vH6ULO_KkOqNthIUcQd1-10" value="models.py" style="rounded=0;whiteSpace=wrap;html=1;fillColor=#60a917;strokeColor=#2D7600;labelBackgroundColor=none;fontColor=#ffffff;" vertex="1" parent="vH6ULO_KkOqNthIUcQd1-62">
          <mxGeometry x="180" y="355" width="120" height="60" as="geometry" />
        </mxCell>
        <mxCell id="vH6ULO_KkOqNthIUcQd1-11" value="База данных" style="shape=cylinder3;whiteSpace=wrap;html=1;boundedLbl=1;backgroundOutline=1;size=15;fillColor=#1ba1e2;fontColor=#ffffff;strokeColor=#006EAF;rounded=0;labelBackgroundColor=none;" vertex="1" parent="vH6ULO_KkOqNthIUcQd1-62">
          <mxGeometry x="20" y="340" width="60" height="90" as="geometry" />
        </mxCell>
        <mxCell id="vH6ULO_KkOqNthIUcQd1-12" value="" style="shape=doubleArrow;whiteSpace=wrap;html=1;fillColor=#fff2cc;strokeColor=#d6b656;rounded=0;labelBackgroundColor=none;gradientColor=#ffd966;" vertex="1" parent="vH6ULO_KkOqNthIUcQd1-62">
          <mxGeometry x="80" y="370" width="100" height="30" as="geometry" />
        </mxCell>
        <mxCell id="vH6ULO_KkOqNthIUcQd1-24" value="" style="edgeStyle=elbowEdgeStyle;elbow=horizontal;endArrow=classic;html=1;curved=0;rounded=0;endSize=8;startSize=8;spacingTop=7;labelBorderColor=none;fontColor=default;targetPerimeterSpacing=3;strokeWidth=4;strokeColor=#d6b656;shadow=0;labelBackgroundColor=none;fillColor=#fff2cc;gradientColor=#ffd966;" edge="1" parent="vH6ULO_KkOqNthIUcQd1-62">
          <mxGeometry width="50" height="50" relative="1" as="geometry">
            <mxPoint x="250" y="273" as="sourcePoint" />
            <mxPoint x="270" y="355.0000000000001" as="targetPoint" />
            <Array as="points">
              <mxPoint x="270" y="293" />
            </Array>
          </mxGeometry>
        </mxCell>
        <mxCell id="vH6ULO_KkOqNthIUcQd1-30" value="" style="edgeStyle=elbowEdgeStyle;elbow=horizontal;endArrow=classic;html=1;curved=0;rounded=0;endSize=8;startSize=8;spacingTop=7;labelBorderColor=none;fontColor=default;targetPerimeterSpacing=3;strokeWidth=4;strokeColor=#d6b656;shadow=0;entryX=1.005;entryY=0.879;entryDx=0;entryDy=0;entryPerimeter=0;labelBackgroundColor=none;fillColor=#fff2cc;gradientColor=#ffd966;" edge="1" parent="vH6ULO_KkOqNthIUcQd1-62" source="vH6ULO_KkOqNthIUcQd1-9">
          <mxGeometry width="50" height="50" relative="1" as="geometry">
            <mxPoint x="420" y="390" as="sourcePoint" />
            <mxPoint x="235.5999999999999" y="272.74" as="targetPoint" />
            <Array as="points">
              <mxPoint x="420" y="290" />
            </Array>
          </mxGeometry>
        </mxCell>
        <mxCell id="vH6ULO_KkOqNthIUcQd1-31" value="" style="edgeStyle=elbowEdgeStyle;elbow=horizontal;endArrow=classic;html=1;curved=0;rounded=0;endSize=8;startSize=8;spacingTop=7;labelBorderColor=none;fontColor=default;strokeWidth=4;strokeColor=#d6b656;shadow=0;sourcePerimeterSpacing=3;labelBackgroundColor=none;fillColor=#fff2cc;gradientColor=#ffd966;" edge="1" parent="vH6ULO_KkOqNthIUcQd1-62" source="vH6ULO_KkOqNthIUcQd1-8" target="vH6ULO_KkOqNthIUcQd1-4">
          <mxGeometry width="50" height="50" relative="1" as="geometry">
            <mxPoint x="246" y="200" as="sourcePoint" />
            <mxPoint x="430" y="257" as="targetPoint" />
            <Array as="points">
              <mxPoint x="370" y="240" />
            </Array>
          </mxGeometry>
        </mxCell>
        <mxCell id="vH6ULO_KkOqNthIUcQd1-32" value="" style="edgeStyle=elbowEdgeStyle;elbow=horizontal;endArrow=classic;html=1;curved=0;rounded=0;endSize=8;startSize=8;spacingTop=7;labelBorderColor=none;fontColor=default;targetPerimeterSpacing=3;strokeWidth=4;strokeColor=#d6b656;shadow=0;labelBackgroundColor=none;fillColor=#fff2cc;gradientColor=#ffd966;" edge="1" parent="vH6ULO_KkOqNthIUcQd1-62" source="vH6ULO_KkOqNthIUcQd1-3">
          <mxGeometry width="50" height="50" relative="1" as="geometry">
            <mxPoint x="174.70999999999998" y="90" as="sourcePoint" />
            <mxPoint x="174.70999999999998" y="227" as="targetPoint" />
            <Array as="points">
              <mxPoint x="174.70999999999998" y="150" />
            </Array>
          </mxGeometry>
        </mxCell>
        <mxCell id="vH6ULO_KkOqNthIUcQd1-45" value="" style="group;fillColor=none;gradientColor=#ffd966;strokeColor=none;" connectable="0" vertex="1" parent="vH6ULO_KkOqNthIUcQd1-62">
          <mxGeometry x="370" y="140" width="122.21" height="90" as="geometry" />
        </mxCell>
        <mxCell id="vH6ULO_KkOqNthIUcQd1-46" value="&lt;font color=&quot;#f5f5f5&quot;&gt;Формирует&lt;br&gt;ответ&lt;/font&gt;" style="whiteSpace=wrap;html=1;rounded=1;arcSize=50;align=center;verticalAlign=middle;strokeWidth=3;autosize=1;spacing=4;treeFolding=1;treeMoving=1;newEdgeStyle={&quot;edgeStyle&quot;:&quot;entityRelationEdgeStyle&quot;,&quot;startArrow&quot;:&quot;none&quot;,&quot;endArrow&quot;:&quot;none&quot;,&quot;segment&quot;:10,&quot;curved&quot;:1,&quot;sourcePerimeterSpacing&quot;:0,&quot;targetPerimeterSpacing&quot;:0};strokeColor=#FFFFFF;fillColor=none;gradientColor=#b3b3b3;perimeterSpacing=4;dashed=1;" vertex="1" parent="vH6ULO_KkOqNthIUcQd1-45">
          <mxGeometry x="12.11" y="10" width="110" height="50" as="geometry" />
        </mxCell>
        <mxCell id="vH6ULO_KkOqNthIUcQd1-47" value="" style="startArrow=none;endArrow=none;segment=10;sourcePerimeterSpacing=0;targetPerimeterSpacing=0;rounded=1;strokeColor=#F5F5F5;strokeWidth=2;fillColor=#ffcc99;entryX=0.448;entryY=0.98;entryDx=0;entryDy=0;entryPerimeter=0;dashed=1;dashPattern=1 1;" edge="1" parent="vH6ULO_KkOqNthIUcQd1-45" target="vH6ULO_KkOqNthIUcQd1-46">
          <mxGeometry relative="1" as="geometry">
            <mxPoint y="90" as="sourcePoint" />
            <Array as="points" />
          </mxGeometry>
        </mxCell>
        <mxCell id="vH6ULO_KkOqNthIUcQd1-48" value="" style="startArrow=none;endArrow=none;segment=10;sourcePerimeterSpacing=0;targetPerimeterSpacing=0;rounded=1;strokeColor=#FFFFFF;strokeWidth=2;fillColor=#ffcc99;entryX=0.052;entryY=0.651;entryDx=0;entryDy=0;entryPerimeter=0;dashed=1;dashPattern=1 1;" edge="1" parent="vH6ULO_KkOqNthIUcQd1-45" target="vH6ULO_KkOqNthIUcQd1-46">
          <mxGeometry relative="1" as="geometry">
            <mxPoint y="86" as="sourcePoint" />
            <mxPoint x="33.24282476024411" y="60" as="targetPoint" />
            <Array as="points">
              <mxPoint x="8.523801220575413" y="66" />
            </Array>
          </mxGeometry>
        </mxCell>
        <mxCell id="vH6ULO_KkOqNthIUcQd1-51" value="" style="group" connectable="0" vertex="1" parent="vH6ULO_KkOqNthIUcQd1-62">
          <mxGeometry x="55" y="440" width="180" height="70" as="geometry" />
        </mxCell>
        <mxCell id="vH6ULO_KkOqNthIUcQd1-55" value="" style="group" connectable="0" vertex="1" parent="vH6ULO_KkOqNthIUcQd1-51">
          <mxGeometry width="180" height="70" as="geometry" />
        </mxCell>
        <mxCell id="vH6ULO_KkOqNthIUcQd1-44" value="" style="group" connectable="0" vertex="1" parent="vH6ULO_KkOqNthIUcQd1-55">
          <mxGeometry width="180" height="70" as="geometry" />
        </mxCell>
        <mxCell id="vH6ULO_KkOqNthIUcQd1-41" value="&lt;font color=&quot;#ffffff&quot;&gt;Запись - чтение&lt;br&gt;&amp;nbsp;данных&amp;nbsp;&lt;/font&gt;" style="whiteSpace=wrap;html=1;rounded=1;arcSize=50;align=center;verticalAlign=middle;strokeWidth=3;autosize=1;spacing=4;treeFolding=1;treeMoving=1;newEdgeStyle={&quot;edgeStyle&quot;:&quot;entityRelationEdgeStyle&quot;,&quot;startArrow&quot;:&quot;none&quot;,&quot;endArrow&quot;:&quot;none&quot;,&quot;segment&quot;:10,&quot;curved&quot;:1,&quot;sourcePerimeterSpacing&quot;:0,&quot;targetPerimeterSpacing&quot;:0};strokeColor=#F2F2F2;fillColor=none;gradientColor=#b3b3b3;perimeterSpacing=4;dashed=1;" vertex="1" parent="vH6ULO_KkOqNthIUcQd1-44">
          <mxGeometry x="25" y="2.56" width="130" height="67.44" as="geometry" />
        </mxCell>
        <mxCell id="vH6ULO_KkOqNthIUcQd1-56" value="" style="group;fillColor=none;gradientColor=#ffd966;strokeColor=none;" connectable="0" vertex="1" parent="vH6ULO_KkOqNthIUcQd1-62">
          <mxGeometry x="50" y="150" width="90" height="80" as="geometry" />
        </mxCell>
        <mxCell id="vH6ULO_KkOqNthIUcQd1-57" value="&lt;font color=&quot;#f5f5f5&quot;&gt;Направляет запрос в main&lt;/font&gt;" style="whiteSpace=wrap;html=1;rounded=1;arcSize=50;align=center;verticalAlign=middle;strokeWidth=3;autosize=1;spacing=4;treeFolding=1;treeMoving=1;newEdgeStyle={&quot;edgeStyle&quot;:&quot;entityRelationEdgeStyle&quot;,&quot;startArrow&quot;:&quot;none&quot;,&quot;endArrow&quot;:&quot;none&quot;,&quot;segment&quot;:10,&quot;curved&quot;:1,&quot;sourcePerimeterSpacing&quot;:0,&quot;targetPerimeterSpacing&quot;:0};strokeColor=#FFFFFF;fillColor=none;gradientColor=#b3b3b3;perimeterSpacing=4;dashed=1;dashPattern=1 1;" vertex="1" parent="vH6ULO_KkOqNthIUcQd1-56">
          <mxGeometry x="-15.48" y="12.78" width="105.48" height="44.44" as="geometry" />
        </mxCell>
        <mxCell id="vH6ULO_KkOqNthIUcQd1-58" value="" style="startArrow=none;endArrow=none;segment=10;sourcePerimeterSpacing=0;targetPerimeterSpacing=0;rounded=1;strokeColor=#F5F5F5;strokeWidth=2;fillColor=#ffcc99;dashed=1;dashPattern=1 1;" edge="1" parent="vH6ULO_KkOqNthIUcQd1-62">
          <mxGeometry relative="1" as="geometry">
            <mxPoint x="110" y="160" as="sourcePoint" />
            <Array as="points" />
            <mxPoint x="170" y="140" as="targetPoint" />
          </mxGeometry>
        </mxCell>
        <mxCell id="vH6ULO_KkOqNthIUcQd1-59" value="" style="startArrow=none;endArrow=none;segment=10;sourcePerimeterSpacing=0;targetPerimeterSpacing=0;rounded=1;strokeColor=#FFFFFF;strokeWidth=2;fillColor=#ffcc99;dashed=1;dashPattern=1 1;exitX=0.986;exitY=0.509;exitDx=0;exitDy=0;exitPerimeter=0;" edge="1" parent="vH6ULO_KkOqNthIUcQd1-62" source="vH6ULO_KkOqNthIUcQd1-57">
          <mxGeometry relative="1" as="geometry">
            <mxPoint x="150" y="182.24" as="sourcePoint" />
            <mxPoint x="170" y="140" as="targetPoint" />
            <Array as="points">
              <mxPoint x="158.52380122057542" y="162.24" />
            </Array>
          </mxGeometry>
        </mxCell>
        <mxCell id="vH6ULO_KkOqNthIUcQd1-43" value="" style="startArrow=none;endArrow=none;segment=10;sourcePerimeterSpacing=0;targetPerimeterSpacing=0;rounded=1;strokeColor=#FFFFFF;strokeWidth=2;fillColor=#ffcc99;entryX=0.157;entryY=0.095;entryDx=0;entryDy=0;entryPerimeter=0;dashed=1;dashPattern=1 1;exitX=0.424;exitY=0.606;exitDx=0;exitDy=0;exitPerimeter=0;" edge="1" parent="vH6ULO_KkOqNthIUcQd1-62" source="vH6ULO_KkOqNthIUcQd1-12" target="vH6ULO_KkOqNthIUcQd1-41">
          <mxGeometry relative="1" as="geometry">
            <mxPoint x="495" y="1016" as="sourcePoint" />
            <mxPoint x="534" y="990" as="targetPoint" />
            <Array as="points" />
          </mxGeometry>
        </mxCell>
        <mxCell id="vH6ULO_KkOqNthIUcQd1-42" value="" style="startArrow=none;endArrow=none;segment=10;sourcePerimeterSpacing=0;targetPerimeterSpacing=0;rounded=1;strokeColor=#FFFFFF;strokeWidth=2;fillColor=#ffcc99;entryX=0.426;entryY=0.04;entryDx=0;entryDy=0;entryPerimeter=0;dashed=1;dashPattern=1 1;exitX=0.454;exitY=0.638;exitDx=0;exitDy=0;exitPerimeter=0;" edge="1" parent="vH6ULO_KkOqNthIUcQd1-62" source="vH6ULO_KkOqNthIUcQd1-12" target="vH6ULO_KkOqNthIUcQd1-41">
          <mxGeometry relative="1" as="geometry">
            <mxPoint x="530.62" y="930" as="sourcePoint" />
            <mxPoint x="615.0039999999999" y="912.44" as="targetPoint" />
            <Array as="points" />
          </mxGeometry>
        </mxCell>
      </root>
    </mxGraphModel>
  </diagram>
</mxfile>
